<?xml version="1.0" standalone="no"?><!DOCTYPE svg PUBLIC "-//W3C//DTD SVG 1.1//EN" "http://www.w3.org/Graphics/SVG/1.1/DTD/svg11.dtd"><svg t="1774617990001" class="icon" viewBox="0 0 1024 1024" version="1.1" xmlns="http://www.w3.org/2000/svg" p-id="12285" xmlns:xlink="http://www.w3.org/1999/xlink" width="256" height="256"><path d="M860.444444 519.111111a99.555556 99.555556 0 1 0-128 95.431111v58.168889l-199.111111 105.386667V472.462222h1.137778l199.111111-128a28.444444 28.444444 0 0 0 13.084445-23.893333v-75.804445a99.555556 99.555556 0 1 0-56.888889 0v59.733334l-156.444445 100.551111v-213.333333a28.444444 28.444444 0 0 0-56.888889 0v434.915555l-213.333333-71.111111v-111.644444a99.555556 99.555556 0 1 0-56.888889 0v132.124444a28.444444 28.444444 0 0 0 19.484445 27.022222l250.737777 83.484445V931.555556a28.444444 28.444444 0 0 0 56.888889 0v-89.173334l240.924445-128a28.444444 28.444444 0 0 0 15.075555-24.604444v-75.235556a99.555556 99.555556 0 0 0 71.111111-95.431111z m-184.888888-369.777778a42.666667 42.666667 0 1 1 42.666666 42.666667 42.666667 42.666667 0 0 1-42.666666-42.666667z m-483.555556 199.111111a42.666667 42.666667 0 1 1 42.666667 42.666667 42.666667 42.666667 0 0 1-42.666667-42.666667z m568.888889 213.333334a42.666667 42.666667 0 1 1 42.666667-42.666667 42.666667 42.666667 0 0 1-42.666667 42.666667z" fill="#1aaba8" p-id="12286"></path></svg>